<?xml version="1.0" standalone="no"?>
<!DOCTYPE svg PUBLIC "-//W3C//DTD SVG 20010904//EN"
 "http://www.w3.org/TR/2001/REC-SVG-20010904/DTD/svg10.dtd">
<svg version="1.0" xmlns="http://www.w3.org/2000/svg"
 width="578.000000pt" height="204.000000pt" viewBox="0 0 578.000000 204.000000"
 preserveAspectRatio="xMidYMid meet">

<g transform="translate(0.000000,204.000000) scale(0.100000,-0.100000)"
fill="#000000" stroke="none">
<path d="M875 1533 c-40 -12 -66 -31 -130 -97 -121 -123 -174 -250 -195 -466
-29 -302 63 -451 278 -451 43 0 108 7 146 17 52 13 72 14 92 5 39 -17 209 -14
228 4 8 8 22 50 31 93 54 250 68 308 75 316 5 5 28 -1 53 -13 l45 -22 -5 -82
c-6 -93 13 -189 47 -235 65 -87 219 -101 354 -32 67 34 79 36 97 14 45 -55
168 -71 247 -33 l44 22 44 -22 c58 -27 130 -27 194 0 l49 21 33 -20 c51 -30
100 -35 168 -16 33 9 63 21 66 25 8 14 47 10 69 -7 58 -44 150 -37 215 15 22
17 41 31 43 31 2 0 7 -21 11 -46 13 -96 69 -144 172 -147 76 -3 84 10 84 127
0 101 21 203 70 338 31 84 45 103 68 89 8 -5 3 -47 -18 -151 -32 -153 -38
-248 -18 -268 8 -8 47 -12 109 -12 142 0 136 -7 190 241 24 111 48 208 54 215
8 10 19 10 57 1 26 -7 50 -15 53 -19 4 -3 -7 -74 -24 -158 -33 -159 -39 -248
-19 -268 8 -8 48 -12 115 -12 90 0 106 3 123 20 11 11 20 26 20 33 0 25 21 87
30 87 5 0 14 -16 20 -35 15 -44 70 -92 116 -101 52 -10 155 1 191 19 17 9 53
39 80 67 53 55 68 61 78 28 10 -33 54 -77 100 -101 79 -41 212 -21 279 41 61
58 93 175 67 246 -8 19 -6 30 11 51 60 76 77 223 36 305 -30 58 -63 80 -130
87 -91 9 -150 -11 -217 -73 l-58 -53 -12 39 c-18 61 -48 89 -104 97 -40 5 -53
2 -78 -16 -24 -18 -33 -20 -50 -10 -13 6 -58 10 -115 7 -109 -4 -103 -13 -79
117 19 107 19 112 -10 140 -20 21 -34 25 -82 25 -90 0 -205 -39 -286 -95 -30
-21 -37 -19 -37 9 0 14 -11 38 -24 53 -23 26 -29 28 -103 28 -58 -1 -90 -6
-125 -22 -54 -25 -205 -165 -264 -246 l-39 -54 -65 -6 c-36 -3 -84 -12 -108
-20 -23 -8 -42 -11 -42 -7 0 4 10 29 21 55 36 81 11 201 -49 241 -18 12 -47
18 -84 19 -47 0 -61 -4 -83 -25 -32 -30 -55 -71 -55 -100 0 -11 -4 -20 -10
-20 -5 0 -10 9 -10 21 0 60 -44 77 -151 59 -88 -15 -115 -37 -134 -109 -7 -29
-21 -61 -30 -72 -16 -16 -19 -17 -40 -3 -17 11 -50 15 -117 15 -51 -1 -116 2
-145 5 -85 10 -145 -10 -213 -72 -59 -55 -70 -62 -70 -43 0 6 -7 26 -16 45
-44 93 -224 100 -329 13 -26 -21 -49 -39 -51 -39 -2 0 -10 13 -19 30 -22 43
-67 63 -124 56 -56 -7 -57 -7 -158 0 l-83 6 0 34 c0 124 -59 212 -158 233 -71
15 -146 13 -207 -6z m238 -47 c54 -26 77 -76 77 -166 0 -106 -23 -140 -93
-140 -66 0 -87 60 -43 125 28 41 25 62 -10 71 -53 13 -114 -37 -163 -133 -62
-123 -99 -352 -68 -426 38 -90 199 -85 289 10 23 24 33 54 63 198 20 94 38
178 41 188 5 14 18 17 90 17 77 0 84 -2 84 -20 0 -25 1 -25 47 0 81 43 145 13
158 -74 4 -25 4 -58 1 -73 -5 -20 2 -13 23 23 37 64 108 127 159 142 60 18
132 15 169 -8 75 -45 69 -213 -12 -307 -37 -44 -123 -93 -162 -93 -13 0 -26
-7 -29 -15 -20 -52 94 -63 167 -17 61 40 69 51 86 134 29 142 100 253 187 294
60 28 140 32 174 8 13 -9 22 -11 22 -4 0 7 29 10 88 8 l87 -3 3 -30 c1 -16
-15 -115 -38 -219 -22 -103 -40 -195 -40 -203 0 -28 62 -11 85 23 27 41 81
292 66 307 -25 25 -5 127 24 127 8 0 17 12 21 28 28 121 30 126 56 133 15 4
53 10 86 14 l60 7 6 -29 c4 -17 2 -50 -3 -74 -15 -65 -14 -79 9 -79 23 0 35
-49 22 -95 -7 -24 -15 -31 -43 -35 l-34 -5 -32 -150 c-18 -82 -32 -156 -33
-162 0 -18 51 -16 78 3 34 23 40 40 82 240 22 102 42 190 46 195 3 5 17 9 31
9 25 0 26 1 8 20 -23 25 -31 98 -15 144 29 88 135 104 175 26 22 -42 19 -128
-5 -168 -11 -18 -20 -48 -20 -66 0 -19 -18 -118 -40 -221 -22 -103 -37 -191
-34 -197 3 -5 20 -8 37 -6 30 3 32 1 35 -34 7 -85 -52 -148 -141 -148 -40 0
-54 5 -76 28 -15 15 -30 34 -33 42 -3 11 -13 7 -44 -17 -48 -37 -93 -53 -152
-53 -39 0 -50 5 -81 38 -36 38 -37 38 -56 19 -51 -49 -152 -71 -204 -44 -13 6
-32 26 -41 44 l-17 32 -29 -30 c-45 -47 -80 -62 -139 -57 -63 5 -111 37 -132
85 l-14 35 -41 -37 c-65 -59 -120 -79 -215 -80 -67 0 -86 4 -109 21 -58 43
-69 68 -72 172 -3 89 5 147 34 239 5 16 4 16 -8 2 -42 -50 -101 -48 -123 5
-11 26 -19 33 -34 29 -47 -12 -56 -35 -101 -252 -49 -240 -39 -224 -150 -219
l-65 3 -3 33 c-4 38 -5 38 -43 11 -75 -53 -219 -75 -313 -47 -63 19 -110 73
-131 151 -23 87 -17 275 14 392 46 175 156 330 261 368 60 22 181 18 233 -7z
m2781 14 c22 -8 26 -16 26 -47 -1 -21 -7 -67 -15 -103 -19 -86 -18 -92 6 -47
60 114 227 207 371 207 l58 0 0 -42 c0 -45 -162 -826 -180 -866 -9 -21 -15
-23 -92 -20 -80 3 -83 4 -86 28 -2 14 31 183 72 375 41 193 73 352 71 353 -2
2 -24 -16 -49 -41 -55 -56 -70 -102 -60 -198 l7 -69 -26 0 c-70 0 -106 40
-116 126 -6 53 -10 39 -70 -247 -35 -167 -68 -310 -74 -316 -6 -9 -37 -13 -88
-13 -75 0 -79 1 -85 25 -3 14 10 99 31 197 20 95 37 179 38 187 2 16 -68 43
-103 39 -21 -3 -30 -16 -62 -99 -59 -151 -90 -281 -91 -384 l-2 -90 -40 3
c-88 8 -121 54 -119 167 2 87 28 183 89 325 19 44 32 80 30 80 -2 0 -16 -5
-30 -12 -20 -9 -25 -18 -25 -49 0 -48 -21 -69 -70 -69 -58 0 -83 36 -78 113 8
103 76 155 217 166 l79 6 59 80 c74 100 172 191 238 221 53 25 125 31 169 14z
m-954 -217 c0 -22 -15 -39 -23 -26 -3 5 -2 23 0 42 4 23 8 29 14 20 5 -8 9
-24 9 -36z m-1948 -41 c-5 -60 22 -97 81 -113 23 -6 47 -13 53 -14 11 -3 -22
-178 -46 -239 -17 -45 -124 -95 -176 -82 -41 11 -54 33 -54 97 0 112 40 261
94 354 35 60 52 59 48 -3z m3746 -13 c38 -40 42 -144 13 -286 -26 -126 -76
-226 -144 -290 -101 -96 -242 -100 -297 -10 -31 51 -26 143 20 362 22 105 43
198 46 208 5 14 18 17 90 17 l84 0 0 -50 c0 -27 -16 -124 -35 -216 -19 -91
-35 -172 -35 -180 0 -23 46 -16 79 12 34 28 82 121 105 202 13 45 13 52 0 52
-33 0 -54 38 -54 100 0 47 4 64 20 80 27 27 83 27 108 -1z m409 -9 c40 -24 57
-81 50 -161 -10 -117 -97 -213 -213 -237 -47 -9 -53 -26 -19 -48 23 -15 31
-15 68 -4 23 7 54 21 68 31 30 21 39 16 39 -20 0 -79 -60 -169 -127 -192 -51
-17 -157 -7 -190 17 -49 36 -73 97 -73 190 0 193 83 364 205 420 64 30 147 32
192 4z m-537 -222 c0 -13 -13 -50 -29 -83 -23 -46 -30 -54 -30 -35 0 23 14 98
24 128 8 21 35 14 35 -10z m-1413 -159 c11 -11 6 -59 -7 -59 -4 0 -13 7 -20
15 -7 8 -21 15 -31 15 -18 0 -26 20 -12 33 10 11 58 8 70 -4z"/>
<path d="M1828 1080 c-25 -19 -74 -108 -64 -117 9 -9 62 29 83 60 41 61 30 96
-19 57z"/>
<path d="M2241 1043 c-50 -61 -96 -228 -71 -258 19 -23 64 -18 90 10 17 18 31
58 50 147 15 68 25 126 23 131 -2 4 -17 7 -33 7 -21 0 -37 -10 -59 -37z m9
-152 c-13 -53 -30 -77 -30 -42 0 25 31 104 37 97 3 -3 0 -28 -7 -55z"/>
<path d="M3668 1292 c-31 -34 -88 -117 -88 -130 0 -8 79 -37 84 -30 7 8 38
179 34 183 -2 3 -16 -8 -30 -23z"/>
<path d="M3881 1244 c0 -11 3 -14 6 -6 3 7 2 16 -1 19 -3 4 -6 -2 -5 -13z"/>
<path d="M5035 1076 c-28 -28 -70 -114 -61 -123 9 -9 53 24 80 60 48 63 32
114 -19 63z"/>
</g>
</svg>
